HIERARCHY
ROOT joint_Root
{
	OFFSET 0.0 0.0 0.0
	CHANNELS 6 Xposition Yposition Zposition Zrotation Xrotation Yrotation 
	JOINT Hips
	{
		OFFSET 4.5925 91.4895 -427.239
		CHANNELS 6 Xposition Yposition Zposition Zrotation Xrotation Yrotation 
		JOINT Spine
		{
			OFFSET 15.7357 0.0 0.0
			CHANNELS 6 Xposition Yposition Zposition Zrotation Xrotation Yrotation 
			JOINT Chest
			{
				OFFSET 8.98455 -0.406207 0.0
				CHANNELS 6 Xposition Yposition Zposition Zrotation Xrotation Yrotation 
				JOINT Neck
				{
					OFFSET 16.3773 0.0 0.0
					CHANNELS 6 Xposition Yposition Zposition Zrotation Xrotation Yrotation 
					JOINT Head
					{
						OFFSET 6.45672 0.0 0.0
						CHANNELS 6 Xposition Yposition Zposition Zrotation Xrotation Yrotation 
						End Site
						{
							OFFSET 0.0 0.0 0.0
						}
					}
				}
				JOINT Shoulder_L
				{
					OFFSET 12.9942 -0.242716 4.98039
					CHANNELS 6 Xposition Yposition Zposition Zrotation Xrotation Yrotation 
					JOINT UpperArm_L
					{
						OFFSET 5.34809 0.0 0.0
						CHANNELS 6 Xposition Yposition Zposition Zrotation Xrotation Yrotation 
						JOINT LowerArm_L
						{
							OFFSET 24.3286 1.87007e-05 0.0
							CHANNELS 6 Xposition Yposition Zposition Zrotation Xrotation Yrotation 
							JOINT Hand_L
							{
								OFFSET 22.2916 0.0 0.0
								CHANNELS 6 Xposition Yposition Zposition Zrotation Xrotation Yrotation 
								End Site
								{
									OFFSET 0.0 0.0 0.0
								}
							}
						}
					}
				}
				JOINT Shoulder_R
				{
					OFFSET 12.9945 -0.242716 -4.98039
					CHANNELS 6 Xposition Yposition Zposition Zrotation Xrotation Yrotation 
					JOINT UpperArm_R
					{
						OFFSET -5.34813 0.0 0.0
						CHANNELS 6 Xposition Yposition Zposition Zrotation Xrotation Yrotation 
						JOINT LowerArm_R
						{
							OFFSET -24.3289 0.000322201 0.0
							CHANNELS 6 Xposition Yposition Zposition Zrotation Xrotation Yrotation 
							JOINT Hand_R
							{
								OFFSET -22.2915 -0.000108084 0.0
								CHANNELS 6 Xposition Yposition Zposition Zrotation Xrotation Yrotation 
								End Site
								{
									OFFSET 0.0 0.0 0.0
								}
							}
						}
					}
				}
			}
		}
		JOINT UpperLeg_L
		{
			OFFSET -2.19248 -6.46944 0.0
			CHANNELS 6 Xposition Yposition Zposition Zrotation Xrotation Yrotation 
			JOINT LowerLeg_L
			{
				OFFSET 39.0811 0.0 -1.23785e-05
				CHANNELS 6 Xposition Yposition Zposition Zrotation Xrotation Yrotation 
				JOINT Foot_L
				{
					OFFSET 40.9854 0.0 -1.26872e-05
					CHANNELS 6 Xposition Yposition Zposition Zrotation Xrotation Yrotation 
					JOINT Toes_L
					{
						OFFSET 11.7543 0.0 0.0
						CHANNELS 6 Xposition Yposition Zposition Zrotation Xrotation Yrotation 
						End Site
						{
							OFFSET 0.0 0.0 0.0
						}
					}
				}
			}
		}
		JOINT UpperLeg_R
		{
			OFFSET -2.19251 6.46944 0.0
			CHANNELS 6 Xposition Yposition Zposition Zrotation Xrotation Yrotation 
			JOINT LowerLeg_R
			{
				OFFSET -39.0811 -0.00228153 -0.0401928
				CHANNELS 6 Xposition Yposition Zposition Zrotation Xrotation Yrotation 
				JOINT Foot_R
				{
					OFFSET -40.9854 0.0 0.0
					CHANNELS 6 Xposition Yposition Zposition Zrotation Xrotation Yrotation 
					JOINT Toes_R
					{
						OFFSET -11.7543 0.0 0.0
						CHANNELS 6 Xposition Yposition Zposition Zrotation Xrotation Yrotation 
						End Site
						{
							OFFSET 0.0 0.0 0.0
						}
					}
				}
			}
		}
	}
}
MOTION
Frames:	9
Frame Time:	0.0333333
0.000000 0.000000 0.000000 0.000000 0.000000 -0.000000 -7.565090 90.166800 -2.728080 86.901800 -4.941260 12.689700 15.735700 0.000005 -0.000001 80.901800 81.513200 -76.516200 8.984550 -0.406207 -0.000000 9.117030 -2.617530 8.973930 16.377300 -0.000001 -0.000001 13.803500 -9.005510 6.869580 6.456720 -0.000001 -0.000000 2.696010 -12.614700 19.395600 12.994200 -0.242716 4.980390 -88.261000 -4.225250 -67.604500 5.348090 -0.000007 -0.000001 -41.617400 -54.653900 -61.547400 24.328600 0.000019 0.000005 4.367960 19.101500 -13.138400 22.291600 -0.000001 0.000005 25.174800 5.045210 6.342480 12.994500 -0.242716 -4.980390 87.857400 11.330700 -79.218500 -5.348130 -0.000001 -0.000004 -56.310000 27.291100 -9.905970 -24.328900 0.000322 -0.000009 1.350770 5.033190 -15.055000 -22.291500 -0.000108 -0.000004 12.562100 5.376370 -2.184680 -2.192480 -6.469440 -0.000000 -167.036000 -8.942470 -0.193017 39.081100 -0.000007 -0.000012 -0.223864 0.337665 33.543900 40.985400 -0.000006 -0.000013 -5.300710 4.419090 -69.354300 11.754300 -0.000000 0.000003 -0.000017 -0.000215 -16.586000 -2.192510 6.469440 -0.000001 -177.522000 17.255200 -178.601000 -39.081100 -0.002282 -0.040193 -0.074819 0.127352 31.525100 -40.985400 0.000008 0.000006 7.783280 9.238720 -71.145100 -11.754300 -0.000006 -0.000006 -0.004394 -0.055476 -18.829900
0.000000 0.000000 0.000000 0.000000 0.000000 -0.000000 -7.620880 90.138800 -2.580970 86.809000 -4.507780 12.939500 15.735700 0.000005 -0.000001 80.930400 81.465500 -76.543400 8.984550 -0.406207 -0.000000 9.212770 -2.620220 8.979470 16.377300 -0.000001 -0.000001 14.379200 -9.162400 6.846690 6.456720 -0.000001 -0.000000 3.567440 -12.698400 19.445100 12.994200 -0.242716 4.980390 -88.219900 -4.301690 -67.493900 5.348090 -0.000007 -0.000001 -41.420200 -54.066600 -61.824900 24.328600 0.000019 0.000005 4.226160 19.419700 -12.530100 22.291600 -0.000001 0.000005 24.160300 5.054080 6.146730 12.994500 -0.242716 -4.980390 87.842500 11.358400 -79.170800 -5.348130 -0.000001 -0.000004 -56.319000 27.350500 -10.367200 -24.328900 0.000322 -0.000009 1.320950 4.894180 -15.135900 -22.291500 -0.000108 -0.000004 12.648400 5.380940 -2.327870 -2.192480 -6.469440 -0.000000 -166.915000 -8.597240 -0.008490 39.081100 -0.000007 -0.000012 -0.225974 0.339407 33.655800 40.985400 -0.000006 -0.000013 -5.293240 4.614420 -69.466400 11.754300 -0.000000 0.000003 -0.000013 -0.000167 -16.584100 -2.192510 6.469440 -0.000001 -177.638000 17.757400 -178.178000 -39.081100 -0.002282 -0.040193 -0.078177 0.132885 31.513900 -40.985400 0.000008 0.000006 7.811100 9.278560 -71.304900 -11.754300 -0.000006 -0.000006 -0.004400 -0.055541 -18.832600
0.000000 0.000000 0.000000 0.000000 0.000000 -0.000000 -7.662370 90.118300 -2.466080 86.745600 -4.040340 13.118500 15.735700 0.000005 -0.000001 80.977100 81.465100 -76.604100 8.984550 -0.406207 -0.000000 9.214770 -2.606790 8.950290 16.377300 -0.000001 -0.000001 15.000000 -9.325950 6.726130 6.456720 -0.000001 -0.000000 4.636300 -12.672400 19.148500 12.994200 -0.242716 4.980390 -88.158600 -4.455410 -67.516900 5.348090 -0.000007 -0.000001 -41.353600 -53.660200 -62.461400 24.328600 0.000019 0.000005 4.431540 19.434500 -13.111600 22.291600 -0.000001 0.000005 23.214300 5.062970 5.949390 12.994500 -0.242716 -4.980390 87.823600 11.399600 -79.116100 -5.348130 -0.000001 -0.000004 -56.379100 27.426000 -10.690400 -24.328900 0.000322 -0.000009 1.287400 4.647280 -15.514800 -22.291500 -0.000108 -0.000004 12.785800 5.381710 -2.352550 -2.192480 -6.469440 -0.000000 -166.869000 -8.225870 0.077477 39.081100 -0.000007 -0.000012 -0.225176 0.337116 33.741200 40.985400 -0.000006 -0.000013 -5.271530 4.801690 -69.540100 11.754300 -0.000000 0.000003 -0.000014 -0.000185 -16.584800 -2.192510 6.469440 -0.000001 -177.772000 18.292100 -177.852000 -39.081100 -0.002282 -0.040193 -0.081090 0.137729 31.496500 -40.985400 0.000008 0.000006 7.836410 9.323010 -71.437700 -11.754300 -0.000006 -0.000006 -0.004129 -0.052778 -18.720000
0.000000 0.000000 0.000000 0.000000 0.000000 -0.000000 -7.705680 90.094300 -2.357400 86.700600 -3.535620 13.355400 15.735700 0.000005 -0.000001 81.079800 81.470900 -76.746500 8.984550 -0.406207 -0.000000 9.205580 -2.575810 8.868410 16.377300 -0.000001 -0.000001 15.900200 -9.404040 6.567640 6.456720 -0.000001 -0.000000 5.501570 -12.639100 18.633700 12.994200 -0.242716 4.980390 -88.081800 -4.646550 -67.538300 5.348090 -0.000007 -0.000001 -42.202100 -53.387400 -64.358900 24.328600 0.000019 0.000005 4.717610 18.708700 -14.428700 22.291600 -0.000001 0.000005 22.971200 5.072140 5.745150 12.994500 -0.242716 -4.980390 87.809900 11.412000 -79.060500 -5.348130 -0.000001 -0.000004 -56.564300 27.547900 -10.897100 -24.328900 0.000322 -0.000009 1.295400 4.529500 -15.991300 -22.291500 -0.000108 -0.000004 12.775300 5.385030 -2.457200 -2.192480 -6.469440 -0.000000 -166.839000 -7.854690 0.201555 39.081100 -0.000007 -0.000012 -0.226808 0.338304 33.839400 40.985400 -0.000006 -0.000013 -5.253500 4.953920 -69.610300 11.754300 -0.000000 0.000003 -0.000014 -0.000178 -16.584500 -2.192510 6.469440 -0.000001 -177.921000 18.734700 -177.486000 -39.081100 -0.002282 -0.040193 -0.086998 0.147321 31.505100 -40.985400 0.000008 0.000006 7.826470 9.262400 -71.571800 -11.754300 -0.000006 -0.000006 -0.004404 -0.055578 -18.834100
0.000000 0.000000 0.000000 0.000000 0.000000 -0.000000 -7.759990 90.064200 -2.240680 86.652800 -3.015790 13.629900 15.735700 0.000005 -0.000001 81.143000 81.465400 -76.866900 8.984550 -0.406207 -0.000000 9.216870 -2.559280 8.752890 16.377300 -0.000001 -0.000001 16.939200 -9.383940 6.276370 6.456720 -0.000001 -0.000000 6.384010 -12.519200 17.988100 12.994200 -0.242716 4.980390 -87.993400 -4.859330 -67.530000 5.348090 -0.000007 -0.000001 -43.132500 -53.097000 -66.766700 24.328600 0.000019 0.000005 4.921470 17.131300 -16.295900 22.291600 -0.000001 0.000005 22.970900 5.090350 5.333930 12.994500 -0.242716 -4.980390 87.806600 11.377900 -79.013100 -5.348130 -0.000001 -0.000004 -56.772100 27.954900 -11.156700 -24.328900 0.000322 -0.000009 1.248940 4.220820 -16.513200 -22.291500 -0.000108 -0.000004 12.768400 5.385960 -2.486520 -2.192480 -6.469440 -0.000000 -166.793000 -7.432710 0.360922 39.081100 -0.000007 -0.000012 -0.229140 0.340419 33.945400 40.985400 -0.000006 -0.000013 -5.237870 5.160740 -69.694100 11.754300 -0.000000 0.000003 -0.000012 -0.000165 -16.584000 -2.192510 6.469440 -0.000001 -178.080000 19.207000 -177.082000 -39.081100 -0.002282 -0.040193 -0.086783 0.146825 31.530300 -40.985400 0.000008 0.000006 7.833020 9.216040 -71.724100 -11.754300 -0.000006 -0.000006 -0.004058 -0.052044 -18.690100
0.000000 0.000000 0.000000 0.000000 0.000000 -0.000000 -7.799580 90.033800 -2.124700 86.608900 -2.455420 13.942800 15.735700 0.000005 -0.000001 81.091300 81.467800 -76.899900 8.984550 -0.406207 -0.000000 9.207980 -2.575160 8.584460 16.377300 -0.000001 -0.000001 18.070500 -9.292740 5.840360 6.456720 -0.000001 -0.000000 7.434510 -12.182000 17.317200 12.994200 -0.242716 4.980390 -87.857900 -5.177210 -67.485300 5.348090 -0.000007 -0.000001 -43.239800 -52.534400 -68.888300 24.328600 0.000019 0.000005 5.102360 15.469200 -18.509600 22.291600 -0.000001 0.000005 23.092600 5.110220 4.878330 12.994500 -0.242716 -4.980390 87.829300 11.286400 -79.039300 -5.348130 -0.000001 -0.000004 -57.105900 28.513700 -11.321600 -24.328900 0.000322 -0.000009 1.219980 3.997550 -17.000300 -22.291500 -0.000108 -0.000004 12.800600 5.387850 -2.546590 -2.192480 -6.469440 -0.000000 -166.775000 -7.022240 0.539489 39.081100 -0.000007 -0.000012 -0.227257 0.335987 34.074300 40.985400 -0.000006 -0.000013 -5.205250 5.330940 -69.786400 11.754300 -0.000000 0.000003 -0.000012 -0.000160 -16.583800 -2.192510 6.469440 -0.000001 -178.281000 19.715700 -176.627000 -39.081100 -0.002282 -0.040193 -0.090076 0.152052 31.553900 -40.985400 0.000008 0.000006 7.816970 9.129360 -71.878700 -11.754300 -0.000006 -0.000006 -0.004047 -0.051930 -18.685500
0.000000 0.000000 0.000000 0.000000 0.000000 -0.000000 -7.833990 89.991900 -2.029820 86.610000 -1.973120 14.244800 15.735700 0.000005 -0.000001 81.023000 81.484500 -76.942800 8.984550 -0.406207 -0.000000 9.169260 -2.592870 8.362850 16.377300 -0.000001 -0.000001 19.355700 -9.073580 5.380480 6.456720 -0.000001 -0.000000 8.466840 -11.732600 16.389100 12.994200 -0.242716 4.980390 -87.698600 -5.542400 -67.407500 5.348090 -0.000007 -0.000001 -42.686000 -51.882200 -70.711000 24.328600 0.000019 0.000005 5.401710 14.193600 -21.089100 22.291600 -0.000001 0.000005 23.112000 5.132730 4.352960 12.994500 -0.242716 -4.980390 87.882600 11.149500 -79.175800 -5.348130 -0.000001 -0.000004 -57.561000 29.012400 -11.416100 -24.328900 0.000322 -0.000009 1.245000 3.977200 -17.411700 -22.291500 -0.000108 -0.000004 12.748500 5.391060 -2.649290 -2.192480 -6.469440 -0.000000 -166.788000 -6.622320 0.691472 39.081100 -0.000007 -0.000012 -0.232610 0.341974 34.223900 40.985400 -0.000006 -0.000013 -5.182880 5.508680 -69.878300 11.754300 -0.000000 0.000003 -0.000013 -0.000168 -16.584100 -2.192510 6.469440 -0.000001 -178.443000 19.983200 -176.282000 -39.081100 -0.002282 -0.040193 -0.091628 0.153817 31.680300 -40.985400 0.000008 0.000006 7.763770 8.887450 -72.035900 -11.754300 -0.000006 -0.000006 -0.004000 -0.051437 -18.665400
0.000000 0.000000 0.000000 0.000000 0.000000 -0.000000 -7.852770 89.959600 -1.936380 86.614700 -1.541150 14.578400 15.735700 0.000005 -0.000001 81.000900 81.486400 -77.041200 8.984550 -0.406207 -0.000000 9.161380 -2.600540 8.122390 16.377300 -0.000001 -0.000001 20.553400 -8.825790 4.834540 6.456720 -0.000001 -0.000000 9.630460 -11.154400 15.333800 12.994200 -0.242716 4.980390 -87.542800 -5.891740 -67.312100 5.348090 -0.000007 -0.000001 -41.719700 -51.264700 -72.531200 24.328600 0.000019 0.000005 5.777020 13.310900 -23.722000 22.291600 -0.000001 0.000005 22.772400 5.158590 3.736160 12.994500 -0.242716 -4.980390 87.927000 11.015100 -79.273100 -5.348130 -0.000001 -0.000004 -58.018600 29.586100 -11.507500 -24.328900 0.000322 -0.000009 1.223790 3.808410 -17.843500 -22.291500 -0.000108 -0.000004 12.755700 5.391210 -2.653980 -2.192480 -6.469440 -0.000000 -166.819000 -6.259870 0.911051 39.081100 -0.000007 -0.000012 -0.231760 0.339238 34.340500 40.985400 -0.000006 -0.000013 -5.152820 5.639850 -69.964900 11.754300 -0.000000 0.000003 -0.000014 -0.000183 -16.584700 -2.192510 6.469440 -0.000001 -178.642000 20.249000 -175.878000 -39.081100 -0.002282 -0.040193 -0.091843 0.153655 31.765300 -40.985400 0.000008 0.000006 7.722390 8.736400 -72.173900 -11.754300 -0.000006 -0.000006 -0.003861 -0.049989 -18.606500
0.000000 0.000000 0.000000 0.000000 0.000000 -0.000000 -7.879650 89.924700 -1.862250 86.606600 -1.203940 14.886500 15.735700 0.000005 -0.000001 81.199300 81.480200 -77.351200 8.984550 -0.406207 -0.000000 9.177200 -2.545270 7.895380 16.377300 -0.000001 -0.000001 21.744500 -8.481300 4.305170 6.456720 -0.000001 -0.000000 10.595700 -10.518700 14.170900 12.994200 -0.242716 4.980390 -87.411500 -6.177790 -67.212600 5.348090 -0.000007 -0.000001 -40.440500 -50.737500 -74.347900 24.328600 0.000019 0.000005 6.345070 12.908000 -26.462800 22.291600 -0.000001 0.000005 22.429200 5.184280 3.109870 12.994500 -0.242716 -4.980390 87.980200 10.863600 -79.401200 -5.348130 -0.000001 -0.000004 -58.506400 29.998700 -11.554100 -24.328900 0.000322 -0.000009 1.217310 3.705780 -18.214100 -22.291500 -0.000108 -0.000004 12.774400 5.394280 -2.752250 -2.192480 -6.469440 -0.000000 -166.796000 -6.003000 1.114290 39.081100 -0.000007 -0.000012 -0.235249 0.342740 34.465200 40.985400 -0.000006 -0.000013 -5.132130 5.789190 -70.044300 11.754300 -0.000000 0.000003 -0.000014 -0.000177 -16.584500 -2.192510 6.469440 -0.000001 -178.832000 20.533700 -175.513000 -39.081100 -0.002282 -0.040193 -0.096910 0.161203 31.866100 -40.985400 0.000008 0.000006 7.714110 8.667740 -72.311500 -11.754300 -0.000006 -0.000006 -0.004048 -0.051937 -18.685800
